<svg width="64" height="64" viewBox="0 0 64 64" fill="none" xmlns="http://www.w3.org/2000/svg">
<path d="M29.7592 26.4181C27.3398 30.4853 25.0219 34.4238 22.6556 38.3328C22.0479 39.3363 21.7471 40.1538 22.2326 41.4294C23.5729 44.9534 21.6821 48.3828 18.1285 49.3136C14.7771 50.1918 11.5119 47.9892 10.8469 44.4011C10.2577 41.2253 12.7223 38.112 16.2239 37.6156C16.5172 37.5736 16.8168 37.5689 17.3098 37.5319L22.6362 28.6004C19.2862 25.2693 17.2923 21.3756 17.7335 16.5505C18.0454 13.1398 19.3867 10.1922 21.8381 7.77648C26.5332 3.15016 33.6962 2.40108 39.2246 5.95199C44.5341 9.36289 46.9658 16.0068 44.893 21.6933C43.3301 21.2696 41.7562 20.8423 40.0261 20.373C40.6769 17.2113 40.1955 14.3723 38.0632 11.9401C36.6544 10.3343 34.8466 9.49265 32.7911 9.18252C28.6701 8.55999 24.6242 11.2074 23.4236 15.2523C22.0609 19.8426 24.1234 23.5925 29.7592 26.4183V26.4181Z" fill="url(#paint0_linear)"/>
<path d="M36.6688 21.6082C38.3734 24.6153 40.1041 27.6677 41.8194 30.6921C50.4891 28.0098 57.0259 32.8092 59.371 37.9474C62.2036 44.1542 60.2671 51.5055 54.7043 55.3349C48.9944 59.2657 41.7733 58.5941 36.7144 53.5446C38.0037 52.4653 39.2994 51.3813 40.6838 50.2231C45.6804 53.4593 50.0506 53.307 53.2951 49.4747C56.0618 46.2054 56.0018 41.3307 53.1548 38.1301C49.8694 34.4366 45.4686 34.324 40.1491 37.8694C37.9424 33.9546 35.6974 30.071 33.5605 26.1278C32.84 24.7989 32.0446 24.0277 30.4205 23.7465C27.7086 23.2763 25.9577 20.9474 25.8526 18.3382C25.7493 15.7578 27.2696 13.4253 29.6457 12.5166C31.9994 11.6161 34.7616 12.3428 36.3448 14.344C37.6387 15.979 38.0498 17.8192 37.3689 19.8357C37.1796 20.3981 36.9345 20.9421 36.6688 21.6085V21.6082Z" fill="url(#paint1_linear)"/>
<path d="M40.7424 46.19H30.3053C29.3049 50.3046 27.1441 53.6266 23.421 55.7391C20.5266 57.3809 17.4071 57.9375 14.087 57.4014C7.9739 56.4156 2.97544 50.9125 2.53534 44.716C2.03731 37.6963 6.86225 31.4567 13.2934 30.0552C13.7374 31.6676 14.1862 33.2955 14.6302 34.904C8.7296 37.9145 6.68735 41.7076 8.33876 46.4506C9.79246 50.6245 13.9219 52.9124 18.4057 52.0276C22.9846 51.1242 25.2932 47.3188 25.0113 41.2116C29.3522 41.2116 33.6966 41.1667 38.0379 41.2337C39.7331 41.2604 41.0418 41.0846 42.3187 39.5901C44.4212 37.131 48.2911 37.3529 50.5555 39.6754C52.8696 42.049 52.7587 45.868 50.3099 48.1415C47.9473 50.3352 44.2146 50.218 42.0041 47.8542C41.5498 47.3671 41.1918 46.7886 40.7424 46.19Z" fill="url(#paint2_linear)"/>
<defs>
<linearGradient id="paint0_linear" x1="10.7598" y1="3.72205" x2="10.7598" y2="49.5066" gradientUnits="userSpaceOnUse">
<stop stop-color="#0C47A1"/>
<stop offset="1" stop-color="#2068D3"/>
</linearGradient>
<linearGradient id="paint1_linear" x1="25.8477" y1="12.135" x2="25.8477" y2="57.8706" gradientUnits="userSpaceOnUse">
<stop stop-color="#0C47A1"/>
<stop offset="1" stop-color="#2068D3"/>
</linearGradient>
<linearGradient id="paint2_linear" x1="2.5" y1="30.0552" x2="2.5" y2="57.5988" gradientUnits="userSpaceOnUse">
<stop stop-color="#0C47A1"/>
<stop offset="1" stop-color="#2068D3"/>
</linearGradient>
</defs>
</svg>
